<svg data-v-423bf9ae="" xmlns="http://www.w3.org/2000/svg" viewBox="0 0 156.67843651325876 163" class="iconAbove"><!----><!----><!----><g data-v-423bf9ae="" id="ecc32a47-e3b5-4842-9835-c598ec4c7f98" fill="#2e3034" transform="matrix(4.240282799826114,0,0,4.240282799826114,-4.494701072677174,76.922261807196)"><path d="M1.06 7.90L1.06 7.90Q1.06 7.70 1.12 7.54Q1.18 7.37 1.30 7.24Q1.41 7.12 1.57 7.04Q1.72 6.97 1.91 6.97L1.91 6.97Q2.11 6.97 2.27 7.04Q2.43 7.12 2.55 7.24Q2.67 7.37 2.73 7.54Q2.80 7.70 2.80 7.90L2.80 7.90Q2.80 8.09 2.73 8.25Q2.67 8.42 2.55 8.55Q2.43 8.67 2.27 8.75Q2.11 8.82 1.91 8.82L1.91 8.82Q1.72 8.82 1.57 8.75Q1.41 8.67 1.30 8.55Q1.18 8.42 1.12 8.25Q1.06 8.09 1.06 7.90ZM2.56 10.12L2.56 13.84Q2.56 14.17 2.57 14.62Q2.58 15.07 2.60 15.52Q2.62 15.98 2.64 16.40Q2.67 16.82 2.70 17.09L2.70 17.09L1.30 17.09L1.30 13.47Q1.30 12.97 1.30 12.48Q1.29 12.00 1.28 11.56Q1.27 11.13 1.25 10.76Q1.23 10.38 1.20 10.12L1.20 10.12L2.56 10.12ZM5.06 14.96L5.06 14.96L5.06 9.28Q5.06 8.80 5.05 8.38Q5.04 7.97 5.02 7.64Q5.00 7.31 4.96 7.11L4.96 7.11Q5.18 7.10 5.52 7.08Q5.85 7.07 6.25 7.06Q6.65 7.05 7.09 7.04Q7.53 7.04 7.96 7.04L7.96 7.04Q8.72 7.04 9.32 7.16Q9.91 7.29 10.32 7.57Q10.72 7.85 10.93 8.31Q11.14 8.76 11.14 9.43L11.14 9.43Q11.14 9.86 11.01 10.21Q10.88 10.55 10.65 10.82Q10.42 11.09 10.12 11.29Q9.82 11.49 9.47 11.62L9.47 11.62Q9.86 11.72 10.25 11.90Q10.64 12.09 10.95 12.39Q11.27 12.69 11.46 13.14Q11.66 13.58 11.66 14.22L11.66 14.22Q11.66 14.84 11.45 15.38Q11.25 15.91 10.81 16.31Q10.37 16.71 9.68 16.93Q8.98 17.16 8.00 17.16L8.00 17.16Q7.48 17.16 6.99 17.15Q6.50 17.14 6.09 17.13Q5.69 17.12 5.39 17.11Q5.09 17.10 4.96 17.09L4.96 17.09Q5.00 16.88 5.02 16.56Q5.04 16.24 5.05 15.84Q5.06 15.44 5.06 14.96ZM6.36 12.30L6.36 16.03Q6.45 16.04 6.62 16.04Q6.78 16.05 7 16.05Q7.22 16.06 7.48 16.06Q7.75 16.06 8.03 16.06L8.03 16.06Q8.47 16.06 8.88 15.98Q9.30 15.89 9.61 15.67Q9.93 15.46 10.13 15.11Q10.32 14.75 10.32 14.22L10.32 14.22Q10.32 13.27 9.74 12.79Q9.17 12.30 7.96 12.30L7.96 12.30L6.36 12.30ZM6.36 8.13L6.36 11.25L7.69 11.25Q8.24 11.25 8.64 11.13Q9.04 11.01 9.30 10.80Q9.56 10.59 9.68 10.29Q9.81 9.99 9.81 9.64L9.81 9.64Q9.81 9.26 9.70 8.97Q9.60 8.68 9.37 8.49Q9.14 8.29 8.77 8.20Q8.41 8.10 7.90 8.10L7.90 8.10Q7.70 8.10 7.47 8.10Q7.25 8.11 7.03 8.11Q6.82 8.12 6.64 8.12Q6.47 8.13 6.36 8.13L6.36 8.13ZM15.21 6.15L15.21 13.84Q15.21 14.17 15.22 14.62Q15.23 15.06 15.25 15.52Q15.26 15.98 15.29 16.39Q15.31 16.81 15.35 17.09L15.35 17.09L13.95 17.09L13.95 9.37Q13.95 8.37 13.91 7.56Q13.88 6.75 13.81 6.15L13.81 6.15L15.21 6.15ZM18.42 13.64L18.42 13.64Q18.42 14.23 18.57 14.70Q18.71 15.18 18.97 15.50Q19.24 15.83 19.60 16.00Q19.96 16.17 20.41 16.17L20.41 16.17Q20.82 16.17 21.18 16.00Q21.54 15.83 21.81 15.50Q22.08 15.18 22.23 14.70Q22.39 14.23 22.39 13.64L22.39 13.64Q22.39 13.04 22.24 12.56Q22.10 12.09 21.84 11.75Q21.57 11.42 21.21 11.25Q20.84 11.07 20.41 11.07L20.41 11.07Q19.99 11.07 19.63 11.25Q19.26 11.42 19.00 11.75Q18.73 12.09 18.58 12.56Q18.42 13.04 18.42 13.64ZM17.16 13.64L17.16 13.64Q17.16 12.76 17.42 12.08Q17.69 11.40 18.14 10.93Q18.59 10.46 19.20 10.22Q19.80 9.98 20.47 9.98L20.47 9.98Q21.18 9.98 21.76 10.22Q22.35 10.46 22.77 10.93Q23.19 11.40 23.42 12.08Q23.65 12.76 23.65 13.64L23.65 13.64Q23.65 14.52 23.39 15.20Q23.12 15.87 22.67 16.33Q22.22 16.79 21.62 17.02Q21.01 17.26 20.34 17.26L20.34 17.26Q19.63 17.26 19.05 17.02Q18.46 16.79 18.04 16.33Q17.62 15.87 17.39 15.20Q17.16 14.52 17.16 13.64ZM29.80 14.39L29.80 11.42Q29.64 11.35 29.46 11.30Q29.27 11.25 29.08 11.22Q28.89 11.18 28.71 11.16Q28.53 11.14 28.37 11.14L28.37 11.14Q27.81 11.14 27.41 11.37Q27.02 11.60 26.77 11.97Q26.52 12.35 26.40 12.82Q26.28 13.29 26.28 13.77L26.28 13.77Q26.28 14.41 26.38 14.83Q26.48 15.25 26.66 15.50Q26.83 15.75 27.07 15.86Q27.30 15.96 27.58 15.96L27.58 15.96Q27.84 15.96 28.14 15.86Q28.43 15.75 28.73 15.55Q29.03 15.35 29.30 15.06Q29.58 14.77 29.80 14.39L29.80 14.39ZM31.07 10.49L31.07 16.92Q31.07 17.82 30.81 18.46Q30.54 19.11 30.12 19.51Q29.69 19.92 29.14 20.11Q28.59 20.30 28.03 20.30L28.03 20.30Q27.37 20.30 26.73 20.08Q26.08 19.85 25.53 19.48L25.53 19.48L25.98 18.42Q26.46 18.77 26.95 18.99Q27.45 19.21 27.96 19.21L27.96 19.21Q28.23 19.21 28.55 19.11Q28.87 19.02 29.15 18.78Q29.43 18.55 29.62 18.15Q29.80 17.75 29.80 17.16L29.80 17.16L29.80 15.76Q29.54 16.09 29.24 16.35Q28.94 16.60 28.64 16.78Q28.33 16.95 28.03 17.04Q27.73 17.12 27.45 17.12L27.45 17.12Q26.97 17.12 26.54 16.96Q26.10 16.80 25.76 16.44Q25.42 16.08 25.22 15.50Q25.02 14.93 25.02 14.12L25.02 14.12Q25.02 13.33 25.22 12.58Q25.43 11.84 25.86 11.26Q26.29 10.68 26.96 10.33Q27.64 9.98 28.57 9.98L28.57 9.98Q28.88 9.98 29.21 10.02Q29.53 10.07 29.85 10.14Q30.17 10.22 30.48 10.31Q30.79 10.40 31.07 10.49L31.07 10.49ZM37.70 10.53L37.46 11.72Q37.29 11.62 37.07 11.51Q36.85 11.40 36.60 11.30Q36.34 11.20 36.05 11.14Q35.76 11.07 35.44 11.07L35.44 11.07Q35.07 11.07 34.81 11.16Q34.56 11.24 34.40 11.36Q34.25 11.49 34.18 11.65Q34.11 11.81 34.11 11.96L34.11 11.96Q34.11 12.14 34.17 12.28Q34.22 12.41 34.40 12.53Q34.57 12.65 34.89 12.76Q35.21 12.87 35.75 12.99L35.75 12.99Q36.22 13.09 36.63 13.25Q37.04 13.41 37.34 13.66Q37.65 13.90 37.83 14.25Q38.01 14.59 38.01 15.07L38.01 15.07Q38.01 15.54 37.80 15.93Q37.60 16.33 37.24 16.63Q36.89 16.93 36.41 17.09Q35.93 17.26 35.38 17.26L35.38 17.26Q34.96 17.26 34.57 17.20Q34.19 17.14 33.85 17.03Q33.51 16.92 33.23 16.78Q32.95 16.63 32.74 16.47L32.74 16.47L33.09 15.24Q33.32 15.45 33.61 15.62Q33.90 15.79 34.21 15.91Q34.51 16.04 34.83 16.10Q35.14 16.17 35.41 16.17L35.41 16.17Q35.71 16.17 35.96 16.09Q36.21 16.01 36.39 15.88Q36.57 15.76 36.67 15.59Q36.78 15.42 36.78 15.24L36.78 15.24Q36.78 15.05 36.70 14.89Q36.62 14.72 36.41 14.56Q36.20 14.41 35.84 14.27Q35.47 14.12 34.90 13.98L34.90 13.98Q34.28 13.83 33.88 13.62Q33.49 13.42 33.27 13.17Q33.04 12.93 32.96 12.64Q32.88 12.35 32.88 12.03L32.88 12.03Q32.88 11.87 32.93 11.66Q32.98 11.45 33.10 11.22Q33.22 10.99 33.42 10.77Q33.61 10.55 33.91 10.37Q34.20 10.20 34.60 10.09Q34.99 9.98 35.51 9.98L35.51 9.98Q35.88 9.98 36.21 10.03Q36.53 10.08 36.80 10.15Q37.07 10.23 37.30 10.33Q37.52 10.43 37.70 10.53L37.70 10.53Z"></path></g><!----><g data-v-423bf9ae="" id="34845225-2712-4e9a-a54e-28d8201ae1cd" transform="matrix(2.8125,0,0,2.8125,34,0)" stroke="none" fill="#488eff"><path d="M15.965 16.258l.707-.707 10.39 10.39-.707.707z"></path><path d="M4.935 26.357L26.018 5.274l.707.707L5.642 27.065z"></path><path d="M31 1v4.194h-4.194V1H31m1-1h-6.194v6.194H32V0zM31 26.806V31h-4.194v-4.194H31m1-1h-6.194V32H32v-6.194zM5.194 26.806V31H1v-4.194h4.194m1-1H0V32h6.194v-6.194z"></path></g><!----></svg>